<svg width="60" height="38" viewBox="0 0 60 38" fill="none" xmlns="http://www.w3.org/2000/svg">
<path d="M7.98413 31.5078C7.98413 34.3569 10.2941 36.667 13.1431 36.667C15.9931 36.667 18.3021 34.3569 18.3021 31.5078" stroke="#F7ECDA" stroke-width="1.33333" stroke-miterlimit="10" stroke-linecap="round" stroke-linejoin="round"/>
<path d="M43.1326 31.5078C43.1326 34.3569 45.4426 36.667 48.2916 36.667C51.1416 36.667 53.4506 34.3569 53.4506 31.5078" stroke="#F7ECDA" stroke-width="1.33333" stroke-miterlimit="10" stroke-linecap="round" stroke-linejoin="round"/>
<path d="M39.4367 9.15107V3.18988C39.4367 1.80183 38.3017 0.666797 36.9137 0.666797H3.18875C1.80175 0.666797 0.666748 1.80183 0.666748 3.18988V28.9857C0.666748 30.3728 1.80175 31.5088 3.18875 31.5088H7.98375C7.98375 28.6587 10.2937 26.3496 13.1427 26.3496C15.9927 26.3496 18.3027 28.6587 18.3027 31.5088H36.6637" stroke="#F7ECDA" stroke-width="1.33333" stroke-miterlimit="10" stroke-linecap="round" stroke-linejoin="round"/>
<path d="M56.6338 9.15107H39.4368V28.9857C39.4368 30.3728 38.3018 31.5088 36.9138 31.5088H43.1328C43.1328 28.6587 45.4418 26.3496 48.2918 26.3496C51.1408 26.3496 53.4508 28.6587 53.4508 31.5088H56.6338C58.0218 31.5088 59.1568 30.3728 59.1568 28.9857V11.6741C59.1568 10.2861 58.0218 9.15107 56.6338 9.15107Z" stroke="#F7ECDA" stroke-width="1.33333" stroke-miterlimit="10" stroke-linecap="round" stroke-linejoin="round"/>
</svg>
