<svg width="38" height="38" viewBox="0 0 38 38" fill="none" xmlns="http://www.w3.org/2000/svg">
<path d="M5.73804 18.6682C12.879 18.6682 18.667 24.4574 18.667 31.5977C18.667 24.4574 24.455 18.6682 31.596 18.6682C24.455 18.6682 18.667 12.8791 18.667 5.73882C18.667 12.8791 12.879 18.6682 5.73804 18.6682Z" stroke="#F7ECDA" stroke-width="1.33333" stroke-miterlimit="10" stroke-linecap="round" stroke-linejoin="round"/>
<path d="M0.666748 30.2038C4.23675 30.2038 7.13175 33.0979 7.13175 36.668C7.13175 33.0979 10.0257 30.2038 13.5957 30.2038C10.0257 30.2038 7.13175 27.3097 7.13075 23.7386C7.13175 27.3097 4.23675 30.2038 0.666748 30.2038Z" stroke="#F7ECDA" stroke-width="1.33333" stroke-miterlimit="10" stroke-linecap="round" stroke-linejoin="round"/>
<path d="M23.738 7.13149C27.308 7.13149 30.202 10.0256 30.202 13.5957C30.202 10.0256 33.097 7.13149 36.667 7.13149C33.097 7.13149 30.202 4.2374 30.202 0.666286C30.202 4.2374 27.308 7.13149 23.738 7.13149Z" stroke="#F7ECDA" stroke-width="1.33333" stroke-miterlimit="10" stroke-linecap="round" stroke-linejoin="round"/>
</svg>
