<svg width="39" height="38" viewBox="0 0 39 38" fill="none" xmlns="http://www.w3.org/2000/svg">
<path d="M19.5269 31.7616C20.0969 31.7126 20.5539 32.0166 21.0179 32.2646C21.9859 32.7816 22.9649 33.2747 23.9299 33.7957C25.5329 34.6627 27.1639 35.4757 28.7599 36.3568C30.0829 37.0878 31.5129 36.4448 31.8649 34.9797C31.9599 34.5827 31.8469 34.2107 31.7849 33.8297C31.5519 32.3856 31.2929 30.9456 31.0529 29.5025C30.8689 28.3905 30.6639 27.2825 30.4789 26.1704C30.3979 25.6844 30.2829 25.2004 30.2239 24.7134C30.1419 24.0234 30.4229 23.4443 30.9029 22.9513C31.5959 22.2383 32.3579 21.5993 33.0529 20.8873C34.5669 19.3372 36.1599 17.8662 37.6929 16.3341C38.4499 15.5791 38.4469 14.236 37.8079 13.56C37.3949 13.123 36.9039 12.926 36.3429 12.843C35.5119 12.72 34.6829 12.579 33.8519 12.471C33.0479 12.367 32.2439 12.257 31.4419 12.141C30.6619 12.027 29.8799 11.912 29.1019 11.781C28.5439 11.687 27.9799 11.591 27.4169 11.55C26.4579 11.479 25.8229 11.0069 25.4259 10.1599C24.2179 7.58483 22.8789 5.07475 21.6699 2.50067C21.4949 2.12765 21.3159 1.75664 21.0609 1.42563C20.2819 0.414598 18.6929 0.412597 17.9179 1.42663C17.4459 2.04365 17.1849 2.77167 16.8519 3.4597C15.9459 5.33076 14.9789 7.17082 14.0859 9.04788C13.8329 9.5789 13.6109 10.1259 13.2829 10.6199C12.9089 11.1829 12.3629 11.444 11.7129 11.54C10.5369 11.713 9.35987 11.873 8.18587 12.058C7.38687 12.185 6.57987 12.288 5.77587 12.388C5.00787 12.485 4.24087 12.601 3.47687 12.729C3.08187 12.796 2.68187 12.827 2.28787 12.914C1.52587 13.082 0.987866 13.531 0.769866 14.262C0.555866 14.9781 0.657865 15.6851 1.21787 16.2481C3.22987 18.2712 5.26987 20.2662 7.34487 22.2253C7.55487 22.4233 7.74687 22.6413 7.95987 22.8363C8.69787 23.5133 8.87087 24.3164 8.66287 25.2924C8.41987 26.4294 8.26087 27.5865 8.06987 28.7355C7.88487 29.8465 7.67887 30.9556 7.49487 32.0676C7.36387 32.8606 7.18087 33.6467 7.08687 34.4437C6.92087 35.8527 8.37786 36.9948 9.64186 36.5828C10.3619 36.3478 11.0039 35.9347 11.6699 35.5847C13.0249 34.8727 14.3809 34.1627 15.7329 33.4447C16.5359 33.0197 17.3499 32.6156 18.1449 32.1766C18.5709 31.9416 19.0029 31.7626 19.4889 31.7236" stroke="#F7ECDA" stroke-width="1.33333" stroke-miterlimit="10" stroke-linecap="round" stroke-linejoin="round"/>
</svg>
