<svg width="32" height="38" viewBox="0 0 32 38" fill="none" xmlns="http://www.w3.org/2000/svg">
<path d="M27.0776 36.668C26.9546 34.6949 26.7946 32.7248 26.6466 30.7538C26.5116 28.9697 26.3846 27.1847 26.2356 25.4016C26.2186 25.2026 26.1936 24.9886 26.0836 24.8446C25.7986 24.4726 25.8866 24.0996 25.9976 23.7115C26.2166 22.9445 26.1976 22.1475 26.2696 21.3635C26.3176 20.8495 26.4066 20.3354 26.3756 19.8154C26.3696 19.7274 26.3856 19.6344 26.4686 19.5814C27.3236 19.0304 27.4276 18.0994 27.6366 17.2323C28.6516 13.0382 29.6516 8.84007 30.6816 4.64994C31.1106 2.90488 30.2056 1.13282 28.2436 0.743808C26.6186 0.420797 25.0826 1.10182 24.5536 3.05888C23.8656 5.60896 23.3106 8.19305 22.6706 10.7561C22.5936 11.0621 22.5686 11.3822 22.5346 11.6952C22.4986 12.0262 22.3136 12.0942 22.0586 12.0172C21.5476 11.8622 21.0286 11.8812 20.5076 11.8812C16.8316 11.8822 13.1556 11.8972 9.4806 11.8752C7.7826 11.8652 6.1116 13.2492 5.9906 15.1193C5.9266 16.1213 5.8926 17.1303 5.7286 18.1254C5.6896 18.3604 5.8096 18.5914 5.7726 18.8294" stroke="#F7ECDA" stroke-width="1.33333" stroke-miterlimit="10" stroke-linecap="round" stroke-linejoin="round"/>
<path d="M22.2439 12.1168C21.9839 14.1428 21.3329 16.0839 20.9229 18.077C20.7779 18.784 20.5459 18.924 19.8039 18.924C15.6429 18.924 11.4819 18.924 7.32089 18.923C6.88289 18.923 6.44089 18.875 6.00789 18.89C5.14689 18.921 4.27689 18.834 3.42889 18.94C1.83089 19.142 0.68289 20.387 0.66689 22.0691C0.65189 23.6871 1.82889 24.9452 3.23889 25.1652C3.89189 25.2672 4.55289 25.1962 5.20989 25.2142" stroke="#F7ECDA" stroke-width="1.33333" stroke-miterlimit="10" stroke-linecap="round" stroke-linejoin="round"/>
<path d="M25.8105 24.4166C25.3785 24.4706 25.0135 24.6946 24.6385 24.8876C24.2095 25.1097 23.7635 25.2187 23.2765 25.2187C17.5515 25.2127 11.8265 25.2117 6.10147 25.2227C5.80447 25.2227 5.50647 25.0787 5.20947 25.2147" stroke="#F7ECDA" stroke-width="1.33333" stroke-miterlimit="10" stroke-linecap="round" stroke-linejoin="round"/>
<path d="M5.16263 25.3076C5.15963 26.6286 4.99063 27.9377 4.89363 29.2517C4.82363 30.2058 4.75563 31.1598 4.69563 32.1148C4.62663 33.2109 4.54663 34.3069 4.44363 35.3989C4.40363 35.8209 4.51463 36.262 4.31763 36.668" stroke="#F7ECDA" stroke-width="1.33333" stroke-miterlimit="10" stroke-linecap="round" stroke-linejoin="round"/>
<path d="M22.5725 11.9289C24.1375 12.2729 25.1285 13.231 25.4145 14.796C25.5695 15.6381 25.5855 16.5121 25.6235 17.3741C25.6575 18.1681 25.7435 18.9462 26.3735 19.5342" stroke="#F7ECDA" stroke-width="1.33333" stroke-miterlimit="10" stroke-linecap="round" stroke-linejoin="round"/>
<path d="M5.63207 19.0178C5.63107 20.3858 5.45507 21.7409 5.36607 23.1029C5.32207 23.7889 5.20007 24.475 5.25707 25.167" stroke="#F7ECDA" stroke-width="1.33333" stroke-miterlimit="10" stroke-linecap="round" stroke-linejoin="round"/>
</svg>
