<svg width="283" height="53" viewBox="0 0 283 53" fill="none" xmlns="http://www.w3.org/2000/svg">
<path d="M0 0.000164032V38.0254H18.276V33.9883H4.964V0.000164032H0Z" fill="#F6EBD9"/>
<path d="M195.151 14.4045C195.754 15.0386 196.282 15.7736 196.73 16.5986C197.634 18.2627 198.093 20.2457 198.093 22.4898C198.093 24.7699 197.634 26.7799 196.73 28.464C195.812 30.1711 194.616 31.4381 193.074 32.3371C191.721 33.1272 190.284 33.5582 188.682 33.6542C188.545 33.6622 188.407 33.6652 188.269 33.6672L188.171 33.6702C188.114 33.6722 188.058 33.6742 188.001 33.6742C187.943 33.6742 187.887 33.6722 187.83 33.6702L187.732 33.6672C187.594 33.6652 187.456 33.6622 187.32 33.6542C185.717 33.5582 184.28 33.1272 182.927 32.3371C181.385 31.4381 180.189 30.1711 179.272 28.464C178.367 26.7809 177.908 24.7709 177.908 22.4898C177.908 20.2457 178.367 18.2627 179.272 16.5976C179.719 15.7736 180.247 15.0386 180.841 14.4135C181.454 13.7805 182.143 13.2425 182.9 12.8055C184.456 11.9105 186.117 11.4735 187.981 11.4705H188.018C189.884 11.4735 191.546 11.9105 193.1 12.8055C193.858 13.2425 194.548 13.7805 195.151 14.4045ZM188.078 7.18531L188.001 7.18931L187.923 7.18531C187.625 7.17031 187.325 7.16031 187.019 7.16031C184.5 7.16031 182.161 7.75133 180.069 8.91837C180.018 8.94637 179.964 8.97537 179.911 9.00337C179.872 9.02437 179.831 9.04537 179.792 9.06738C177.636 10.3374 175.919 12.1455 174.689 14.4425C173.458 16.7426 172.834 19.4497 172.834 22.4898C172.834 25.4949 173.458 28.211 174.689 30.5641C175.919 32.9171 177.626 34.7712 179.763 36.0742C179.814 36.1052 179.866 36.1332 179.919 36.1622L180.085 36.2543C182.408 37.5863 185.055 38.1733 187.915 38.0113L188.001 38.0063L188.086 38.0113C190.952 38.1743 193.593 37.5863 195.917 36.2543L198.148 34.9752V38.0703H203.167V22.4898C203.167 19.4487 202.542 16.7416 201.312 14.4425C200.082 12.1455 198.366 10.3374 196.211 9.06837C196.171 9.04537 196.13 9.02437 196.089 9.00237L195.933 8.91837C193.84 7.75133 191.502 7.16031 188.982 7.16031C188.677 7.16031 188.376 7.17031 188.078 7.18531Z" fill="#F6EBD9"/>
<path d="M278.181 34.9072C277.434 42.0665 271.363 47.6666 264.009 47.6666C257.401 47.6666 251.705 43.1835 250.159 36.7633L250.135 36.6403C250.08 36.2813 249.643 34.3522 249.49 33.8622C246.99 25.8769 239.684 20.5118 231.309 20.5118C226.968 20.5118 222.877 21.9398 219.477 24.6389L217.06 26.558V0.00110626H212.261V38.0713H217.138C217.885 30.9111 223.955 25.3119 231.309 25.3119C237.918 25.3119 243.613 29.7951 245.159 36.2143C245.514 37.7423 245.644 38.3543 245.709 38.6604C245.759 38.8944 245.759 38.8944 245.828 39.1154C248.329 47.1016 255.635 52.4668 264.009 52.4668C274.011 52.4668 282.238 44.7175 283 34.9072H278.181Z" fill="#F6EBD9"/>
<path d="M159.006 28.465C158.088 30.1721 156.892 31.4391 155.351 32.3381C153.997 33.1282 152.56 33.5592 150.958 33.6552C150.822 33.6632 150.684 33.6662 150.546 33.6682L150.447 33.6712C150.391 33.6732 150.334 33.6752 150.277 33.6752C150.22 33.6752 150.163 33.6732 150.107 33.6712L150.008 33.6682C149.87 33.6662 149.732 33.6632 149.597 33.6552C147.994 33.5592 146.557 33.1282 145.203 32.3381C143.662 31.4391 142.466 30.1721 141.548 28.465C140.643 26.782 140.185 24.7719 140.185 22.4908C140.185 20.2468 140.643 18.2637 141.548 16.5986C141.996 15.7746 142.524 15.0396 143.118 14.4146C143.73 13.7815 144.42 13.2435 145.176 12.8075C146.726 11.9155 148.38 11.4785 150.234 11.4715L150.304 11.4705L150.318 11.4715C152.175 11.4785 153.829 11.9155 155.377 12.8065C156.134 13.2435 156.824 13.7816 157.427 14.4056C158.03 15.0406 158.558 15.7756 159.006 16.5996C159.911 18.2637 160.369 20.2468 160.369 22.4908C160.369 24.7719 159.911 26.782 159.006 28.465ZM141.33 49.6847C143.937 51.5308 147.241 52.4668 151.15 52.4668C154.009 52.4668 156.551 51.8608 158.706 50.6667C160.859 49.4717 162.539 47.7926 163.698 45.6736C164.763 43.7255 165.345 41.4764 165.426 38.9904L165.443 38.3913V22.4908C165.443 19.4507 164.819 16.7436 163.588 14.4446C162.359 12.1465 160.642 10.3384 158.487 9.0704C158.447 9.04639 158.406 9.02539 158.366 9.00439L158.208 8.91939C156.116 7.75235 153.778 7.16133 151.259 7.16133C150.953 7.16133 150.652 7.17134 150.355 7.18634L150.277 7.19033L150.199 7.18634C149.902 7.17134 149.601 7.16133 149.295 7.16133C146.776 7.16133 144.438 7.75235 142.345 8.91939C142.294 8.94839 142.24 8.97639 142.187 9.00539C142.147 9.02639 142.106 9.04739 142.066 9.0704C139.912 10.3384 138.196 12.1465 136.965 14.4446C135.735 16.7436 135.111 19.4507 135.111 22.4908C135.111 25.4959 135.735 28.213 136.965 30.5651C138.196 32.9182 139.902 34.7722 142.039 36.0753C142.089 36.1063 142.141 36.1333 142.192 36.1613L142.362 36.2563C144.685 37.5873 147.332 38.1743 150.192 38.0123L150.277 38.0073L150.362 38.0123C153.225 38.1743 155.869 37.5873 158.193 36.2553L160.424 34.9762V38.4033C160.422 41.5174 159.575 43.8685 157.833 45.5926C156.113 47.2946 153.864 48.1567 151.15 48.1567C148.761 48.1567 146.687 47.5966 144.986 46.4936C143.284 45.3886 142.146 43.9105 141.603 42.1015H136.693C137.163 45.2866 138.723 47.8376 141.33 49.6847Z" fill="#F6EBD9"/>
<path d="M120.776 28.465C119.858 30.1721 118.662 31.4391 117.121 32.3381C115.767 33.1282 114.33 33.5592 112.728 33.6552C112.592 33.6632 112.454 33.6662 112.316 33.6682L112.217 33.6712C112.161 33.6732 112.104 33.6752 112.047 33.6752C111.99 33.6752 111.933 33.6732 111.877 33.6712L111.778 33.6682C111.64 33.6662 111.502 33.6632 111.367 33.6552C109.764 33.5592 108.327 33.1282 106.973 32.3381C105.432 31.4391 104.236 30.1721 103.318 28.465C102.413 26.782 101.955 24.7719 101.955 22.4908C101.955 20.2468 102.413 18.2637 103.318 16.5986C103.766 15.7746 104.294 15.0396 104.888 14.4146C105.5 13.7815 106.19 13.2435 106.946 12.8075C108.496 11.9155 110.15 11.4785 112.004 11.4715L112.074 11.4705L112.089 11.4715C113.945 11.4785 115.599 11.9155 117.147 12.8065C117.904 13.2435 118.594 13.7816 119.197 14.4056C119.8 15.0396 120.328 15.7746 120.776 16.5986C121.681 18.2637 122.14 20.2468 122.14 22.4908C122.14 24.7719 121.681 26.782 120.776 28.465ZM125.468 45.6736C126.534 43.7255 127.115 41.4764 127.196 38.9904L127.213 38.3913V22.4908C127.213 19.4507 126.589 16.7436 125.358 14.4446C124.129 12.1465 122.412 10.3384 120.257 9.0704C120.217 9.0464 120.176 9.02539 120.136 9.00439L119.978 8.91939C117.886 7.75235 115.548 7.16133 113.029 7.16133C112.723 7.16133 112.422 7.17133 112.125 7.18634L112.047 7.19033L111.97 7.18634C111.672 7.17133 111.371 7.16133 111.065 7.16133C108.546 7.16133 106.208 7.75235 104.116 8.91939L103.958 9.00439C103.918 9.02539 103.877 9.04639 103.838 9.06939C101.682 10.3384 99.9659 12.1465 98.7359 14.4446C97.5049 16.7436 96.8809 19.4507 96.8809 22.4908C96.8809 25.4959 97.5049 28.213 98.7359 30.5651C99.9659 32.9182 101.672 34.7722 103.809 36.0753C103.86 36.1063 103.912 36.1343 103.964 36.1623L104.131 36.2553C106.455 37.5873 109.101 38.1743 111.962 38.0123L112.047 38.0073L112.132 38.0123C114.994 38.1743 117.639 37.5873 119.963 36.2553L122.194 34.9762V38.4033C122.192 41.5174 121.344 43.8685 119.603 45.5926C117.883 47.2946 115.634 48.1567 112.92 48.1567C110.531 48.1567 108.457 47.5966 106.756 46.4936C105.055 45.3886 103.916 43.9105 103.373 42.1015H98.4629C98.9329 45.2866 100.493 47.8376 103.1 49.6847C105.707 51.5308 109.011 52.4668 112.92 52.4668C115.779 52.4668 118.321 51.8608 120.476 50.6667C122.629 49.4717 124.309 47.7926 125.468 45.6736Z" fill="#F6EBD9"/>
<path d="M75.1906 11.4565H75.4636C78.0326 11.4565 80.0886 12.2546 81.5736 13.8296C83.0576 15.4047 83.8106 17.7087 83.8106 20.6768V38.0254H88.7196V19.9678C88.7196 15.8417 87.5816 12.6386 85.3386 10.4475C83.0926 8.25743 80.1186 7.1464 76.4996 7.1464H74.1546C70.5346 7.1464 67.5616 8.25743 65.3166 10.4475C63.0726 12.6386 61.9336 15.8417 61.9336 19.9678V38.0254H66.8436V20.6768C66.8436 17.7087 67.5966 15.4047 69.0806 13.8296C70.5656 12.2546 72.6216 11.4565 75.1906 11.4565Z" fill="#F6EBD9"/>
<path d="M28.783 20.4038L29.205 18.5778C29.66 16.6117 30.582 14.9866 31.947 13.7476C33.727 12.1326 35.824 11.3475 38.357 11.3475C40.094 11.3475 41.7 11.7055 43.13 12.4116C44.58 13.1266 45.695 14.1436 46.54 15.5197C47.106 16.4437 47.485 17.5087 47.668 18.6858L47.934 20.4038H28.783ZM52.923 21.4399C52.923 18.7258 52.326 16.2567 51.15 14.1016C49.973 11.9486 48.275 10.2325 46.104 9.00146C43.931 7.77042 41.398 7.1464 38.575 7.1464C35.679 7.1464 33.082 7.78042 30.856 9.02946C28.629 10.2775 26.877 12.0856 25.646 14.4026C24.415 16.7187 23.791 19.4538 23.791 22.5309C23.791 25.61 24.433 28.3531 25.7 30.6872C26.967 33.0222 28.738 34.8483 30.965 36.1153C33.191 37.3824 35.751 38.0254 38.575 38.0254C42.123 38.0254 45.133 37.1164 47.522 35.3243C49.376 33.9343 50.764 32.2022 51.665 30.1591H46.068C45.513 31.0032 44.803 31.7292 43.949 32.3242C42.519 33.3192 40.711 33.8243 38.575 33.8243C35.931 33.8243 33.745 33.0122 31.892 31.3422C30.446 30.0391 29.502 28.3161 29.089 26.22L28.737 24.441H52.759C52.868 23.3909 52.923 22.3819 52.923 21.4399Z" fill="#F6EBD9"/>
</svg>
